<?xml version="1.0" encoding="iso-8859-1"?>
<!-- Generator: Adobe Illustrator 18.0.0, SVG Export Plug-In . SVG Version: 6.00 Build 0)  -->
<!DOCTYPE svg PUBLIC "-//W3C//DTD SVG 1.1//EN" "http://www.w3.org/Graphics/SVG/1.1/DTD/svg11.dtd">
<svg version="1.1" id="Capa_1" xmlns="http://www.w3.org/2000/svg" xmlns:xlink="http://www.w3.org/1999/xlink" x="0px" y="0px"
	 viewBox="0 0 317.129 317.129" style="enable-background:new 0 0 317.129 317.129;" xml:space="preserve">
<path d="M263.562,13.751c0-1.558-0.727-3.026-1.963-3.972c-1.238-0.946-2.844-1.262-4.348-0.853l-6.31,1.713
	c-10.852,2.946-21.945,4.379-33.916,4.379c-19.045,0-38.107-3.723-56.543-7.323C141.113,3.911,121.086,0,100.105,0
	c-13.768,0-26.578,1.661-39.16,5.078L57.256,6.08c-2.178,0.592-3.689,2.568-3.689,4.825l-0.002,301.224c0,2.762,2.238,5,5,5h10
	c2.762,0,5-2.238,5-5V156.626c8.531-1.764,17.25-2.623,26.535-2.623c19.045,0,38.109,3.723,56.545,7.322
	c19.369,3.782,39.398,7.693,60.379,7.693c13.768,0,26.576-1.661,39.16-5.077l3.688-1.001c2.178-0.592,3.69-2.567,3.69-4.824
	l0.002-3.823c0.004-26.151,0.002-52.305,0.002-78.457L263.562,13.751z"/>
<g>
</g>
<g>
</g>
<g>
</g>
<g>
</g>
<g>
</g>
<g>
</g>
<g>
</g>
<g>
</g>
<g>
</g>
<g>
</g>
<g>
</g>
<g>
</g>
<g>
</g>
<g>
</g>
<g>
</g>
</svg>
