<?xml version='1.0' encoding='iso-8859-1'?>
<!DOCTYPE svg PUBLIC '-//W3C//DTD SVG 1.1//EN' 'http://www.w3.org/Graphics/SVG/1.1/DTD/svg11.dtd'>
<svg fill="#000" version="1.1" 
  xmlns="http://www.w3.org/2000/svg" viewBox="0 0 512.002 512.002" 
  xmlns:xlink="http://www.w3.org/1999/xlink" enable-background="new 0 0 512.002 512.002">
  <path d="m497.962,430.08c-9.993-9.993-23.321-14.478-36.433-13.799l-48.262-48.262 25.376-25.376c12.5-12.501 12.5-32.759 0-45.252-12.485-12.5-32.767-12.5-45.252,0l-9.375,9.375-50.763-50.763 137.369-137.369c2.438-2.43 4.461-5.235 6-8.313l32.001-64.002c6.156-12.321 3.742-27.204-6-36.939-9.727-9.735-24.61-12.141-36.939-6l-64.002,32.001c-3.078,1.539-5.883,3.563-8.313,6l-137.368,137.37-137.369-137.369c-2.43-2.438-5.235-4.461-8.313-6l-64.002-32.001c-12.321-6.156-27.204-3.758-36.939,6-9.742,9.735-12.157,24.618-6,36.939l32.001,64.002c1.539,3.078 3.563,5.883 6,8.313l137.369,137.369-50.762,50.763-9.375-9.375c-12.485-12.5-32.767-12.5-45.252,0-12.5,12.493-12.5,32.751 0,45.252l25.376,25.376-48.262,48.26c-13.112-0.679-26.439,3.806-36.433,13.799-18.716,18.716-18.716,49.168 0,67.884 18.717,18.717 49.168,18.717 67.885,0 9.993-9.993 14.478-23.32 13.799-36.432l48.262-48.262 25.376,25.376c6.242,6.25 14.438,9.375 22.626,9.375 8.188,0 16.383-3.125 22.626-9.375 12.5-12.5 12.5-32.751 0-45.252l-9.375-9.375 50.763-50.763 50.763,50.763-9.375,9.375c-12.5,12.5-12.5,32.751 0,45.252 6.242,6.25 14.438,9.375 22.626,9.375s16.383-3.125 22.626-9.375l25.376-25.376 48.262,48.262c-0.679,13.112 3.806,26.438 13.799,36.432 18.717,18.717 49.168,18.717 67.885,0 18.714-18.716 18.714-49.167-0.002-67.883z"/>
</svg>
