<?xml version="1.0" encoding="iso-8859-1"?>
<!-- Generator: Adobe Illustrator 19.0.0, SVG Export Plug-In . SVG Version: 6.00 Build 0)  -->
<svg version="1.1" id="Layer_1" xmlns="http://www.w3.org/2000/svg" xmlns:xlink="http://www.w3.org/1999/xlink" x="0px" y="0px"
	 viewBox="0 0 512 512" style="enable-background:new 0 0 512 512;" xml:space="preserve">
<g>
	<g>
		<path d="M498.165,109.192l-16.792-16.789c-18.445-18.447-48.459-18.447-66.906,0.001c-16.287,16.287-18.184,41.59-5.708,59.988
			l-69.238,69.238l-62.485-27.576c-19.469-8.593-41.655-8.677-61.125-0.085L98.893,245.53h295.161v-0.001l-15.027-6.547
			l58.03-57.988c8.002,5.79,17.585,8.946,27.654,8.946c12.638,0,24.517-4.911,33.453-13.846
			C516.612,157.647,516.612,127.638,498.165,109.192z M469.694,147.631c-2.747,2.746-7.217,2.746-9.963,0l-16.792-16.792
			c-2.746-2.747-2.746-7.215,0-9.963c2.746-2.746,7.215-2.747,9.963,0l16.792,16.792C472.44,140.415,472.44,144.883,469.694,147.631
			z"/>
	</g>
</g>
<g>
	<g>
		<polygon points="29.528,325.915 29.528,433.432 463.047,433.432 463.047,326.058 29.901,326.058 		"/>
	</g>
</g>
<g>
	<g>
		<rect y="258.957" width="492.575" height="46.976"/>
	</g>
</g>
<g>
</g>
<g>
</g>
<g>
</g>
<g>
</g>
<g>
</g>
<g>
</g>
<g>
</g>
<g>
</g>
<g>
</g>
<g>
</g>
<g>
</g>
<g>
</g>
<g>
</g>
<g>
</g>
<g>
</g>
</svg>
