<?xml version="1.0" encoding="UTF-8"?>
<svg width="97px" height="100px" viewBox="0 0 97 100" version="1.1" xmlns="http://www.w3.org/2000/svg" xmlns:xlink="http://www.w3.org/1999/xlink">
    <!-- Generator: Sketch 55.2 (78181) - https://sketchapp.com -->
    <title>Combined Shape</title>
    <desc>Created with Sketch.</desc>
    <g id="HexArena" stroke="none" stroke-width="1" fill="none" fill-rule="evenodd">
        <g id="Action-preview" transform="translate(-120.000000, -123.000000)" fill="#000000" fill-rule="nonzero">
            <g id="Build---Not-enough-gold" transform="translate(120.000000, 123.000000)">
                <g id="Circle">
                    <g id="recruit-copy">
                        <path d="M46,48.5 L28.3383948,48.5 L28.3383948,66 L17.6616052,66 L17.6616052,48.5 L0,48.5 L0,38.5 L17.6616052,38.5 L17.6616052,21 L28.3383948,21 L28.3383948,38.5 L46,38.5 L46,48.5 Z M96.580065,74.2105192 C97.6254364,76.4604664 96.6518347,79.1325034 94.4058898,80.1790793 C93.7936041,80.4643661 93.1496948,80.5995966 92.5163267,80.5995966 C90.8252517,80.5998212 89.2068437,79.6377082 88.4465328,78.00124 L86.5354387,73.8874937 L77.1356188,73.8874937 L75.2460556,83.0297013 C77.6839846,84.707727 79.2864688,87.5190378 79.2864688,90.6991998 C79.2864688,95.8276239 75.1206828,100 70.0001348,100 C64.8795868,100 60.7138009,95.8276239 60.7138009,90.6991998 C60.7138009,87.5190378 62.3162851,84.707727 64.754214,83.0297013 L62.8644266,73.8874937 L53.4643824,73.8874937 L51.5535126,78.00124 C50.5083655,80.2507379 47.8403247,81.2256551 45.5943798,80.1790793 C43.348435,79.1325034 42.374609,76.4604664 43.4197562,74.2105192 L46.0642475,68.518036 C47.0533245,66.3889426 49.381356,64.9020815 51.72576,64.9020815 L59.3073379,64.9020815 L59.3073379,15.8579047 C59.3073379,14.6329684 59.8335,12.9502253 60.5310123,11.9440838 L68.0556229,1.09127831 C68.5364803,0.397829124 69.2452067,0 70.0001348,0 C70.755063,0 71.4635651,0.397829124 71.9444225,1.09127831 L79.4690331,11.9443084 C80.1667697,12.9506746 80.6929318,14.633193 80.6929318,15.8581293 L80.6929318,64.9020815 L88.2745096,64.9020815 C90.6195865,64.9020815 92.9476181,66.3896165 93.9362465,68.5191591 L96.580065,74.2105192 Z" id="Combined-Shape"></path>
                    </g>
                </g>
            </g>
        </g>
    </g>
</svg>