<?xml version="1.0" encoding="UTF-8"?>
<svg width="602px" height="354px" viewBox="0 0 602 354" version="1.1" xmlns="http://www.w3.org/2000/svg" xmlns:xlink="http://www.w3.org/1999/xlink">
    <!-- Generator: Sketch 63.1 (92452) - https://sketch.com -->
    <title>   </title>
    <desc>Created with Sketch.</desc>
    <g id="---" stroke="none" stroke-width="1" fill="none" fill-rule="evenodd">
        <rect fill="#FFFFFF" x="0" y="0" width="602" height="354"></rect>
        <g id="castle-icon" transform="translate(94.000000, 155.000000)" fill="#277053">
            <path d="M16,48 L16,57 L24,57 L24,48 L40,48 L40,57 L48,57 L48,48 L63,48 L63.000209,112.239211 C55.1381176,113.476356 49.8021578,115.138498 48.3797743,116.999117 L13,117 L13,80.033 L6.487,72 L3,72 C1.34314575,72 2.02906125e-16,70.6568542 0,69 L0,48 L16,48 Z M146,48 L146,57 L154,57 L154,48 L170,48 L170,57 L178,57 L178,48 L194,48 L194,69 C194,70.6568542 192.656854,72 191,72 L187.513,72 L181,80.033 L181,117 L145.620226,116.999117 C144.197902,115.138577 138.862333,113.476496 131.000787,112.239368 L131,48 L146,48 Z" id="Combined-Shape"></path>
            <path d="M57,-2.77032086e-09 L57,9.91525423 L66,9.91525423 L66,-2.77032086e-09 L80,-2.77032086e-09 L80,9.91525423 L89,9.91525424 L89,0 L111,0 L111,9.91525424 L116,9.91525423 L116,-2.77032086e-09 L129,-2.77032086e-09 L129,9.91525423 L137,9.91525423 L137,-2.77032086e-09 L149,-2.77032086e-09 L149,16.8559322 C149,20.4538711 146.253016,23.4123924 142.735206,23.7620366 L142.499565,23.7814596 L142.5,23.7966102 L139,23.7966102 L131,33.7116102 L131,117 L109,117 L109,102.211268 L108.996902,101.87186 L108.98729,101.524496 C108.700388,93.789498 103.591958,87.604161 97.2793287,87.426463 L97.2793287,87.426463 L97,87.4225352 C90.4646305,87.4225352 85.1494805,93.8610329 85.0030981,101.87186 L85.0030981,101.87186 L85,102.211268 L85,117 L63,117 L63,33.7116102 L55,23.7966102 L51.5,23.7966102 L51.500435,23.7814596 C47.8704288,23.5435665 45,20.5338253 45,16.8559322 L45,-2.77032086e-09 L57,-2.77032086e-09 Z M103,47 L91,47 C87.6862915,47 85,49.6862915 85,53 L85,53 L85,64.6619718 C85,67.9756803 87.6862915,70.6619718 91,70.6619718 L91,70.6619718 L103,70.6619718 C106.313708,70.6619718 109,67.9756803 109,64.6619718 L109,64.6619718 L109,53 C109,49.6862915 106.313708,47 103,47 L103,47 Z" id="Tower"></path>
        </g>
        <g id="castle-icon" transform="translate(325.000000, 203.000000)" fill="#993838">
            <path d="M85.0384615,-1.42108547e-14 L85.0384615,5.84745763 L89.7307692,5.84745763 L89.7307692,-1.42108547e-14 L99.1153846,-1.42108547e-14 L99.1153846,5.84745763 L103.807692,5.84745763 L103.807692,-1.42108547e-14 L108.5,-1.42108547e-14 L108.5,5.84745763 L108.5,5.84745763 L108.5,-1.42108547e-14 L113.192308,-1.42108547e-14 L113.192308,5.84745763 L117.884615,5.84745763 L117.884615,-1.42108547e-14 L127.269231,-1.42108547e-14 L127.269231,5.84745763 L131.961538,5.84745763 L131.961538,-1.42108547e-14 L139,-1.42108547e-14 L139,9.94067797 C139,12.0396561 137.423353,13.7696314 135.392099,14.0144122 L135.1875,14.0338983 L133.134615,14.0338983 L128.442615,19.8818983 L128.442308,14.0338983 L128.441385,14.0334576 L128.442308,69 L102,69 L116,69 L116,60.3380282 L115.996669,60.0682301 L115.986202,59.7897104 C115.76218,55.3519051 112.837701,51.8199022 109.222291,51.680341 L109.222291,51.680341 L109,51.6760563 C105.20695,51.6760563 102.118525,55.4091905 102.003331,60.0682301 L102.003331,60.0682301 L102,60.3380282 L102,69 L88.5576923,69 L88.5573846,19.8818983 L83.8653846,14.0338983 L81.8125,14.0338983 C79.6835085,13.8845531 78,12.109622 78,9.94067797 L78,-1.42108547e-14 L85.0384615,-1.42108547e-14 Z M112.5,28 L105.5,28 C103.567003,28 102,29.5670034 102,31.5 L102,31.5 L102,38.3591549 C102,40.2921516 103.567003,41.8591549 105.5,41.8591549 L105.5,41.8591549 L112.5,41.8591549 C114.432997,41.8591549 116,40.2921516 116,38.3591549 L116,38.3591549 L116,31.5 C116,29.5670034 114.432997,28 112.5,28 L112.5,28 Z" id="Tower"></path>
        </g>
        <text id="HexArena.io" font-family="AvenirNext-Bold, Avenir Next" font-size="52.3" font-weight="bold" letter-spacing="3.26875" fill="#000000">
            <tspan x="135" y="125">HexArena.io</tspan>
        </text>
    </g>
</svg>