<?xml version="1.0" encoding="iso-8859-1"?>
<!-- Generator: Adobe Illustrator 19.0.0, SVG Export Plug-In . SVG Version: 6.00 Build 0)  -->
<svg version="1.1" id="Layer_1" xmlns="http://www.w3.org/2000/svg" xmlns:xlink="http://www.w3.org/1999/xlink" x="0px" y="0px"
	 viewBox="0 0 511.999 511.999" style="enable-background:new 0 0 511.999 511.999;" xml:space="preserve">
<path style="fill:#F5F5F5;" d="M482.411,145.605c-0.003-12.607-6.729-24.255-17.649-30.557l-83.28-48.063L273.601,4.725
	c-10.918-6.302-24.37-6.3-35.287,0.006l-107.798,62.26l-83.327,48.127c-10.917,6.305-17.64,17.955-17.639,30.562l0.036,220.713
	c0.003,12.607,6.729,24.255,17.649,30.557l83.281,48.063l107.882,62.262c10.92,6.302,24.37,6.298,35.287-0.006l107.798-62.26
	l83.327-48.128c10.917-6.305,17.64-17.955,17.639-30.563L482.411,145.605z"/>
<g>
	<path style="fill:#FF4B55;" d="M29.552,145.681l0.036,220.713c0.003,12.607,6.729,24.255,17.649,30.557l83.281,48.063V66.992
		L47.19,115.119C36.273,121.424,29.549,133.075,29.552,145.681z"/>
	<path style="fill:#FF4B55;" d="M464.81,396.881c10.917-6.305,17.64-17.955,17.639-30.563l-0.036-220.713
		c-0.003-12.607-6.729-24.255-17.649-30.557l-83.281-48.063v378.023L464.81,396.881z"/>
	<path style="fill:#FF4B55;" d="M305.927,293.227l48.819-27.896l-11.202-5.601c-3.142-1.571-4.94-4.964-4.476-8.446l3.644-27.328
		l-20.669,6.013c-4.566,1.328-9.304-1.48-10.331-6.122l-1.979-8.946l-19.406,22.711c-2.689,3.148-7.815,0.744-7.114-3.338
		l8.288-48.191l-12.689,3.47c-3.707,1.013-7.62-0.672-9.429-4.063l-13.363-25.043v-0.036l-0.01,0.019l-0.01-0.019v0.036
		l-13.361,25.043c-1.808,3.39-5.723,5.076-9.429,4.063l-12.689-3.47l8.288,48.191c0.702,4.081-4.424,6.486-7.114,3.338
		l-19.406-22.711l-1.979,8.946c-1.027,4.642-5.765,7.45-10.331,6.122l-20.669-6.013l3.644,27.328
		c0.465,3.482-1.333,6.876-4.475,8.446l-11.202,5.601l48.819,27.896c5.056,2.889,7.273,9.019,5.234,14.474l-4.174,11.162
		l41.832-3.572c2.314-0.197,4.285,1.666,4.218,3.989l-1.317,44.775h8.227l-1.317-44.778c-0.069-2.323,1.902-4.186,4.218-3.988
		l41.851,3.573l-4.173-11.162C298.654,302.246,300.871,296.118,305.927,293.227z"/>
</g>
<g>
</g>
<g>
</g>
<g>
</g>
<g>
</g>
<g>
</g>
<g>
</g>
<g>
</g>
<g>
</g>
<g>
</g>
<g>
</g>
<g>
</g>
<g>
</g>
<g>
</g>
<g>
</g>
<g>
</g>
</svg>
